<svg xmlns="http://www.w3.org/2000/svg" width="195.872" height="213.581" viewBox="0 0 195.872 213.581"><g transform="translate(210.652 -783.198)"><g transform="translate(-415.782 282.684)"><g transform="translate(227.767 500.998)"><path d="M67.291.014a65.864,65.864,0,0,1,67.291,64.33,65.864,65.864,0,0,1-67.291,64.33A65.864,65.864,0,0,1,0,64.344,65.864,65.864,0,0,1,67.291.014Z" transform="translate(0 0.002)" fill="none"/><path d="M67.3,13.458c-29.688,0-53.841,22.822-53.841,50.874S37.611,115.207,67.3,115.207s53.84-22.822,53.84-50.874S96.986,13.458,67.3,13.458M67.3,0c37.168,0,67.3,28.8,67.3,64.333s-30.13,64.332-67.3,64.332S0,99.863,0,64.333,30.13,0,67.3,0Z" transform="translate(0 0.016)" fill="#3f3f3f" stroke="#3f3f3f" stroke-width="1"/></g><path d="M305.507-358.314H289.782a98.807,98.807,0,0,1,14.262-24.85,98.8,98.8,0,0,1,20.789-19.716,94.713,94.713,0,0,1,26.3-13,94.819,94.819,0,0,1,28.364-4.333,94.673,94.673,0,0,1,50.991,14.867l-10.56,10.56a81.722,81.722,0,0,0-40.431-10.72,81.881,81.881,0,0,0-73.993,47.192Zm163.7,0H453.493a81.64,81.64,0,0,0-11.25-17.77l10.173-10.173a98.653,98.653,0,0,1,16.8,27.942Z" transform="translate(-84.652 1061.179)" fill="#3f3f3f"/></g><path d="M2.326,1095.6l34.8,33.949,40.985-40.985,31.032-31.032" transform="translate(-131 -146.826)" fill="none" stroke="#8dc743" stroke-width="20"/></g></svg>