<svg xmlns="http://www.w3.org/2000/svg" width="219.836" height="206.423" viewBox="0 0 219.836 206.423"><g transform="translate(500.387 -853.024)"><path d="M179.43,66.021H163.711a82.09,82.09,0,0,0-4.633-8.583l10.38-10.38A99.029,99.029,0,0,1,179.43,66.02Zm-163.7,0H0A98.87,98.87,0,0,1,35.051,21.455a94.845,94.845,0,0,1,109.334,0c1.872,1.319,3.722,2.721,5.5,4.166L139.631,35.873a81.6,81.6,0,0,0-123.9,30.148Z" transform="translate(-499.652 989.354)" fill="#3f3f3f" stroke="#3f3f3f" stroke-width="1"/><g transform="translate(-704.782 352.51)"><g transform="translate(227.767 500.998)"><path d="M67.291.014a65.864,65.864,0,0,1,67.291,64.33,65.864,65.864,0,0,1-67.291,64.33A65.864,65.864,0,0,1,0,64.344,65.864,65.864,0,0,1,67.291.014Z" transform="translate(0 0.002)" fill="none"/><path d="M67.3,13.458c-29.688,0-53.841,22.822-53.841,50.874S37.611,115.207,67.3,115.207s53.84-22.822,53.84-50.874S96.986,13.458,67.3,13.458M67.3,0c37.168,0,67.3,28.8,67.3,64.333s-30.13,64.332-67.3,64.332S0,99.863,0,64.333,30.13,0,67.3,0Z" transform="translate(0 0.016)" fill="#3f3f3f" stroke="#3f3f3f" stroke-width="1"/></g></g><g transform="translate(-250.77 30.875)"><path d="M79,0,0,79" transform="translate(-115.852 942.5)" fill="none" stroke="#ff4d4d" stroke-width="20"/><line x1="79" y2="79" transform="translate(-36.852 942.5) rotate(90)" fill="none" stroke="#ff4d4d" stroke-width="20"/></g></g></svg>