<svg xmlns="http://www.w3.org/2000/svg" width="290.247" height="158.55" viewBox="0 0 290.247 158.55"><g transform="translate(-758.085 -1321.143)"><g transform="translate(639.69 847.222)"><g transform="translate(219.817 500.998)"><path d="M43.658.008A42.733,42.733,0,0,1,87.317,41.746,42.733,42.733,0,0,1,43.658,83.483,42.733,42.733,0,0,1,0,41.746,42.733,42.733,0,0,1,43.658.008Z" transform="translate(0 0.002)" fill="none"/><path d="M43.664,8.732C24.4,8.732,8.732,23.539,8.732,41.739S24.4,74.747,43.664,74.747,78.6,59.94,78.6,41.739,62.925,8.732,43.664,8.732m0-8.732C67.778,0,87.327,18.687,87.327,41.739S67.778,83.478,43.664,83.478,0,64.791,0,41.739,19.549,0,43.664,0Z" transform="translate(0 0.01)" fill="#3f3f3f" stroke="#3f3f3f" stroke-width="1"/></g><path d="M10.2,40.161H0A64.143,64.143,0,0,1,22.742,11.246a61.558,61.558,0,0,1,70.936,0,64.143,64.143,0,0,1,22.737,28.915h-10.2a52.945,52.945,0,0,0-96.014,0Z" transform="translate(205.13 591.809)" fill="#3f3f3f" stroke="#3f3f3f" stroke-width="1"/></g><g transform="translate(553.69 820.635)"><g transform="translate(219.817 500.998)"><path d="M43.658.008A42.733,42.733,0,0,1,87.317,41.746,42.733,42.733,0,0,1,43.658,83.483,42.733,42.733,0,0,1,0,41.746,42.733,42.733,0,0,1,43.658.008Z" transform="translate(0 0.002)" fill="none"/><path d="M43.664,8.732C24.4,8.732,8.732,23.539,8.732,41.739S24.4,74.747,43.664,74.747,78.6,59.94,78.6,41.739,62.925,8.732,43.664,8.732m0-8.732C67.778,0,87.327,18.687,87.327,41.739S67.778,83.478,43.664,83.478,0,64.791,0,41.739,19.549,0,43.664,0Z" transform="translate(0 0.01)" fill="#3f3f3f" stroke="#3f3f3f" stroke-width="1"/></g><path d="M10.2,40.161H0A64.143,64.143,0,0,1,22.742,11.246a61.558,61.558,0,0,1,70.936,0,64.143,64.143,0,0,1,22.737,28.915h-10.2a52.945,52.945,0,0,0-96.014,0Z" transform="translate(205.13 591.809)" fill="#3f3f3f" stroke="#3f3f3f" stroke-width="1"/></g><g transform="translate(726.052 820.635)"><g transform="translate(219.817 500.998)"><path d="M43.658.008A42.733,42.733,0,0,1,87.317,41.746,42.733,42.733,0,0,1,43.658,83.483,42.733,42.733,0,0,1,0,41.746,42.733,42.733,0,0,1,43.658.008Z" transform="translate(0 0.002)" fill="none"/><path d="M43.664,8.732C24.4,8.732,8.732,23.539,8.732,41.739S24.4,74.747,43.664,74.747,78.6,59.94,78.6,41.739,62.925,8.732,43.664,8.732m0-8.732C67.778,0,87.327,18.687,87.327,41.739S67.778,83.478,43.664,83.478,0,64.791,0,41.739,19.549,0,43.664,0Z" transform="translate(0 0.01)" fill="#3f3f3f" stroke="#3f3f3f" stroke-width="1"/></g><path d="M10.2,40.161H0A64.143,64.143,0,0,1,22.742,11.246a61.558,61.558,0,0,1,70.936,0,64.143,64.143,0,0,1,22.737,28.915h-10.2a52.945,52.945,0,0,0-96.014,0Z" transform="translate(205.13 591.809)" fill="#3f3f3f" stroke="#3f3f3f" stroke-width="1"/></g></g></svg>