<svg xmlns="http://www.w3.org/2000/svg" width="180.9" height="202.851" viewBox="0 0 180.9 202.851"><g transform="translate(-204.395 -500.514)"><g transform="translate(227.767 500.998)"><path d="M67.291.014a65.864,65.864,0,0,1,67.291,64.33,65.864,65.864,0,0,1-67.291,64.33A65.864,65.864,0,0,1,0,64.344,65.864,65.864,0,0,1,67.291.014Z" transform="translate(0 0.002)" fill="none"/><path d="M67.3,13.458c-29.688,0-53.841,22.822-53.841,50.874S37.611,115.207,67.3,115.207s53.84-22.822,53.84-50.874S96.986,13.458,67.3,13.458M67.3,0c37.168,0,67.3,28.8,67.3,64.333s-30.13,64.332-67.3,64.332S0,99.863,0,64.333,30.13,0,67.3,0Z" transform="translate(0 0.016)" fill="#3f3f3f" stroke="#3f3f3f" stroke-width="1"/></g><path d="M15.726,61.9H0A98.863,98.863,0,0,1,35.052,17.333a94.88,94.88,0,0,1,109.334,0A98.863,98.863,0,0,1,179.43,61.9H163.711a81.6,81.6,0,0,0-147.985,0Z" transform="translate(205.13 640.966)" fill="#3f3f3f" stroke="#3f3f3f" stroke-width="1"/></g></svg>