<svg xmlns="http://www.w3.org/2000/svg" width="252.933" height="239.467" viewBox="0 0 252.933 239.467"><g transform="translate(38.662 -1257.054)"><g transform="translate(-38 1214.523)"><g transform="translate(7.838 51.03)"><path d="M147.572,120,30,182.705l117.572,62.705,117.572-62.705Z" transform="translate(-30 -120)" fill="none" stroke="#404040" stroke-linecap="round" stroke-linejoin="round" stroke-miterlimit="10" stroke-width="17"/><path d="M210,456v53.3c0,17.244,31.353,39.191,70.544,39.191a105.083,105.083,0,0,0,22.536-2.454c-6.3-26.346,3-35.892,14.762-43.189,12.188-7.456,36.368-.9,33.245,1.271V456" transform="translate(-162.971 -368.213)" fill="none" stroke="#404040" stroke-linecap="round" stroke-linejoin="round" stroke-miterlimit="10" stroke-width="17"/><line y2="103" transform="translate(235.162 62.446)" fill="none" stroke="#404040" stroke-linecap="round" stroke-linejoin="round" stroke-miterlimit="10" stroke-width="17"/></g></g><g transform="translate(-39.25 -71)"><g transform="translate(138 1460)" fill="none" stroke="#404040" stroke-width="17"><circle cx="41" cy="41" r="41" stroke="none"/><circle cx="41" cy="41" r="32.5" fill="none"/></g><line x2="36" y2="36" transform="translate(205.5 1519.5)" fill="none" stroke="#404040" stroke-linecap="round" stroke-width="17"/></g></g></svg>